<svg width="48" height="48" viewBox="0 0 48 48" fill="none" xmlns="http://www.w3.org/2000/svg">
<path d="M21.7665 35.5L33.1665 24.1L30.9 21.8335L21.75 30.9835L16.9165 26.15L14.6665 28.4L21.7665 35.5ZM11.3335 44C10.4335 44 9.65283 43.6695 8.9915 43.0085C8.3305 42.3472 8 41.5665 8 40.6665V7.3335C8 6.4335 8.3305 5.65283 8.9915 4.9915C9.65283 4.3305 10.4335 4 11.3335 4H28.7L40 15.3V40.6665C40 41.5665 39.6695 42.3472 39.0085 43.0085C38.3472 43.6695 37.5665 44 36.6665 44H11.3335ZM27.0335 16.8665V7.3335H11.3335V40.6665H36.6665V16.8665H27.0335Z" fill="#E6EDF3"/>
</svg>
